<svg width="73" height="60" viewBox="0 0 73 60" fill="none" xmlns="http://www.w3.org/2000/svg">
<path d="M36.5 28L14.5 25C8.9 24.2363 7.5 30.0151 7.5 33C5 39.6667 0.399999 53 2 53C4 53 32 58 40 58.5C46.4 58.9 63.6667 55 71.5 53L62 25L36.5 28Z" fill="#FABF9E" stroke="black"/>
<path d="M30.7042 40.6413C31.1891 42.3743 30.4895 44.085 29.1416 44.4622C27.7936 44.8394 26.3078 43.7402 25.8229 42.0071C25.3379 40.2741 26.0375 38.5634 27.3855 38.1862C28.7334 37.809 30.2193 38.9082 30.7042 40.6413Z" fill="black"/>
<path d="M35.1683 34.9403C35.6532 36.6734 34.9536 38.3841 33.6057 38.7613C32.2578 39.1384 30.7719 38.0393 30.287 36.3062C29.8021 34.5731 30.5017 32.8625 31.8496 32.4853C33.1975 32.1081 34.6834 33.2073 35.1683 34.9403Z" fill="black"/>
<path d="M42.3172 35.6524C41.8379 37.3871 40.3556 38.4911 39.0065 38.1183C37.6573 37.7455 36.9522 36.0371 37.4315 34.3024C37.9108 32.5678 39.393 31.4638 40.7422 31.8366C42.0913 32.2094 42.7965 33.9178 42.3172 35.6524Z" fill="black"/>
<path d="M47.9874 41.5649C47.5081 43.2995 46.0258 44.4035 44.6766 44.0307C43.3275 43.6579 42.6223 41.9495 43.1016 40.2149C43.5809 38.4803 45.0632 37.3763 46.4123 37.7491C47.7615 38.1219 48.4667 39.8303 47.9874 41.5649Z" fill="black"/>
<path d="M31.7172 44.0612C33.2255 41.1955 33.9683 40.3071 35.7896 39.8004C36.9552 39.4762 38.3234 39.8533 39.3867 40.9619C40.7969 42.802 40.7132 43.8948 42.1995 45.004C44.6956 46.8668 45.6381 53.7671 40.5931 52.5754C35.548 51.3838 33.6928 53.5179 30.8196 52.3716C27.9464 51.2252 27.66 47.5979 31.7172 44.0612Z" fill="black"/>
<path fill-rule="evenodd" clip-rule="evenodd" d="M13.8955 27.3893C11.9928 27.1237 10.2059 28.3287 9.7507 30.1526L4.36284 51.7406C4.32066 51.9096 4.35181 52.0309 4.38349 52.0928C4.39912 52.1233 4.41591 52.1425 4.43079 52.1552C4.44435 52.1668 4.46805 52.1833 4.51308 52.1974C8.26577 53.3729 18.0919 55.6473 37.9024 55.6473C57.4576 55.6473 65.7254 53.4302 68.6566 52.2985C68.6571 52.294 68.6576 52.289 68.658 52.2836C68.6607 52.2475 68.6585 52.1952 68.6421 52.1296L63.1968 30.3113C62.7322 28.45 60.8714 27.2212 58.908 27.5311C53.5109 28.3829 44.9488 29.5313 37.9024 29.5313C30.461 29.5313 20.0477 28.2481 13.8955 27.3893ZM5.53513 29.0969C6.5397 25.0718 10.4367 22.5117 14.4952 23.0783C20.6571 23.9384 30.7975 25.1786 37.9024 25.1786C44.5895 25.1786 52.8704 24.0777 58.2316 23.2315C62.3466 22.582 66.3845 25.1372 67.4123 29.2556L72.8577 51.074C73.3498 53.0458 72.584 55.439 70.2761 56.338C66.6734 57.7412 57.8139 60 37.9024 60C17.7774 60 7.49351 57.6915 3.21616 56.3517C0.682703 55.5581 -0.424391 52.9754 0.14727 50.6849L5.53513 29.0969Z" fill="black"/>
<path fill-rule="evenodd" clip-rule="evenodd" d="M36.6505 4.28593C34.6388 4.25435 32.982 5.82742 32.9498 7.79949C32.9335 8.79336 32.3577 9.54754 31.7173 9.95084C31.0771 10.3541 30.1394 10.5534 29.2119 10.1568C28.7864 9.97486 28.3161 9.86962 27.8155 9.86176C25.8039 9.83017 24.147 11.4033 24.1148 13.3753C24.0978 14.4109 23.5 15.1896 22.8652 15.6136C22.2305 16.0376 21.2743 16.2974 20.2867 15.9366C19.911 15.7994 19.5034 15.7206 19.0726 15.7138C17.061 15.6822 15.4041 17.2553 15.3719 19.2274C15.3476 20.7166 16.2572 22.0124 17.579 22.5685C17.8651 22.6889 18.1176 22.8249 18.3173 22.9385C18.4194 22.9966 18.5711 23.0863 18.6881 23.1555C18.7489 23.1914 18.8003 23.2218 18.8305 23.2393C19.1236 23.4095 19.2116 23.4355 19.2173 23.4372C19.2177 23.4373 19.2177 23.4373 19.2175 23.4373C23.3271 24.3225 30.96 25.7717 36.3833 25.7128C41.3296 25.6591 48.2376 24.3096 52.1005 23.4593C52.5055 23.1593 53.1287 22.8428 53.9274 22.8553C55.939 22.8869 57.5959 21.3138 57.6281 19.3417C57.6603 17.3697 56.0557 15.7454 54.044 15.7138C53.473 15.7048 52.9363 15.8238 52.457 16.0416C50.7838 16.8019 48.8531 15.578 48.8827 13.7643C48.915 11.7922 47.3103 10.1679 45.2987 10.1363C44.7981 10.1285 44.3247 10.2189 43.8935 10.3873C42.9534 10.7546 42.0228 10.5259 41.396 10.1028C40.7691 9.6796 40.2183 8.90773 40.2345 7.91387C40.2667 5.9418 38.6621 4.31751 36.6505 4.28593ZM28.8968 5.65508C29.8814 2.34067 33.0295 -0.0569243 36.7205 0.00102833C40.4115 0.0589813 43.4797 2.5542 44.3554 5.89784C44.6881 5.86191 45.0263 5.84604 45.3687 5.85141C48.966 5.90789 51.9717 8.27946 52.9327 11.4952C53.3192 11.4454 53.7137 11.4226 54.114 11.4289C58.5396 11.4984 62.0698 15.0718 61.999 19.4104C61.9309 23.5755 58.5686 26.9316 54.3841 27.1318C54.0365 27.3496 53.6469 27.5104 53.2272 27.6033C49.4144 28.4474 41.9659 29.9379 36.4317 29.998C30.4501 30.063 22.3695 28.5039 18.2793 27.6229C17.5501 27.4658 16.956 27.1316 16.6027 26.9265C16.4741 26.8518 16.3717 26.7913 16.2873 26.7414C16.0757 26.6164 15.9761 26.5576 15.855 26.5066C12.9601 25.2887 10.9473 22.4458 11.001 19.1587C11.0719 14.8202 14.717 11.3594 19.1426 11.4289C19.429 11.4334 19.712 11.4526 19.9909 11.486C20.8864 8.04025 24.1005 5.51743 27.8855 5.57686C28.2279 5.58223 28.5655 5.60872 28.8968 5.65508Z" fill="black"/>
</svg>
