<svg width="69" height="71" viewBox="0 0 69 71" fill="none" xmlns="http://www.w3.org/2000/svg">
<path d="M13.5 3L5 21H3L1 65.5L5 68.5H66V21L55 3H13.5Z" fill="#BDE1D3"/>
<path fill-rule="evenodd" clip-rule="evenodd" d="M17.4518 4.33333C16.1005 4.33333 14.8652 5.10612 14.2609 6.32951L8.16669 18.6667H61.8333L55.7391 6.32951C55.1348 5.10612 53.8995 4.33333 52.5482 4.33333H17.4518ZM10.4318 4.39158C11.7613 1.70013 14.4789 0 17.4518 0H52.5482C55.521 0 58.2387 1.70013 59.5682 4.39158L66.695 18.8192C67.6438 20.74 66.2639 23 64.1423 23H5.85772C3.73608 23 2.35617 20.74 3.30499 18.8192L10.4318 4.39158Z" fill="black"/>
<path fill-rule="evenodd" clip-rule="evenodd" d="M63.25 22.3063H5.75C4.95609 22.3063 4.3125 22.9489 4.3125 23.7417V65.2583C4.3125 66.0511 4.95609 66.6938 5.75 66.6938H63.25C64.0439 66.6938 64.6875 66.0511 64.6875 65.2583V23.7417C64.6875 22.9489 64.0439 22.3063 63.25 22.3063ZM5.75 18C2.57436 18 0 20.5706 0 23.7417V65.2583C0 68.4294 2.57436 71 5.75 71H63.25C66.4256 71 69 68.4294 69 65.2583V23.7417C69 20.5706 66.4256 18 63.25 18H5.75Z" fill="black"/>
<path fill-rule="evenodd" clip-rule="evenodd" d="M30 19V2H39V19H30Z" fill="black"/>
<path d="M25.4972 42.0073C26.2153 44.5736 25.1793 47.1068 23.1833 47.6653C21.1873 48.2238 18.9871 46.5962 18.269 44.0299C17.5509 41.4636 18.5868 38.9304 20.5829 38.3719C22.5789 37.8134 24.7791 39.441 25.4972 42.0073Z" fill="black"/>
<path d="M32.1085 33.5652C32.8266 36.1315 31.7906 38.6647 29.7946 39.2232C27.7986 39.7817 25.5984 38.1541 24.8803 35.5878C24.1622 33.0214 25.1982 30.4883 27.1942 29.9298C29.1902 29.3712 31.3904 30.9989 32.1085 33.5652Z" fill="black"/>
<path d="M42.6923 34.6197C41.9826 37.1883 39.7876 38.8231 37.7898 38.2711C35.792 37.7191 34.7478 35.1893 35.4576 32.6206C36.1673 30.052 38.3622 28.4172 40.3601 28.9693C42.3579 29.5213 43.4021 32.0511 42.6923 34.6197Z" fill="black"/>
<path d="M51.0903 43.375C50.3805 45.9436 48.1856 47.5784 46.1878 47.0263C44.19 46.4743 43.1458 43.9445 43.8555 41.3759C44.5653 38.8073 46.7602 37.1725 48.758 37.7245C50.7558 38.2765 51.8 40.8063 51.0903 43.375Z" fill="black"/>
<path d="M26.9969 47.0716C29.2304 42.8282 30.3304 41.5126 33.0273 40.7624C34.7532 40.2822 36.7794 40.8406 38.3539 42.4822C40.4421 45.207 40.3181 46.8253 42.5191 48.4678C46.2153 51.2261 47.6109 61.444 40.1402 59.6794C32.6695 57.9149 29.9224 61.0751 25.6678 59.3776C21.4132 57.6801 20.989 52.3087 26.9969 47.0716Z" fill="black"/>
</svg>
