<svg width="83" height="71" viewBox="0 0 83 71" fill="none" xmlns="http://www.w3.org/2000/svg">
<path d="M43.2798 0L82.1574 6.85516L72.6363 60.8518L33.7587 53.9966L43.2798 0Z" fill="white"/>
<path fill-rule="evenodd" clip-rule="evenodd" d="M77.4793 10.1308L46.5554 4.6781L38.4368 50.721L69.3607 56.1737L77.4793 10.1308ZM43.2798 0L33.7587 53.9966L72.6363 60.8518L82.1574 6.85516L43.2798 0Z" fill="black"/>
<path d="M44.0124 18.5324C47.7249 22.9873 55.9089 12.7129 59.5367 7.01882L46.4495 4.71118L44.0124 18.5324Z" fill="#FABF9E"/>
<path d="M68.6036 29.491C69.7256 23.128 73.5411 22.1605 75.3086 22.4722L71.1012 46.3334C66.2662 42.7472 67.2012 37.4447 68.6036 29.491Z" fill="#FABF9E"/>
<path d="M55.0687 34.5651C46.7717 32.0087 37.1088 38.2325 33.3144 41.664L31.912 49.6177L59.7501 54.5263C69.5738 45.3238 65.44 37.7607 55.0687 34.5651Z" fill="#ABBAAC"/>
<path d="M0.786377 17.0034L39.6639 10.1483L49.185 64.1449L10.3074 71L0.786377 17.0034Z" fill="white"/>
<path fill-rule="evenodd" clip-rule="evenodd" d="M36.3883 14.8264L5.46448 20.2791L13.5831 66.3219L44.5069 60.8692L36.3883 14.8264ZM0.786377 17.0034L10.3074 71L49.185 64.1449L39.6639 10.1483L0.786377 17.0034Z" fill="black"/>
<path d="M11.8792 26.0696L31.9128 22.5371L37.8161 56.0167L17.7825 59.5492L11.8792 26.0696Z" fill="#BDE1D3"/>
<mask id="mask0" mask-type="alpha" maskUnits="userSpaceOnUse" x="65" y="20" width="3" height="4">
<path d="M66.1513 20.9868L67.8533 21.2668L67.544 23.1347L65.8421 22.8547L66.1513 20.9868Z" fill="white"/>
</mask>
<g mask="url(#mask0)">
<path d="M67.7568 21.8841C67.7585 21.8744 67.7505 21.8629 67.7407 21.8612C67.6253 21.8308 67.5306 21.8543 67.4686 21.8635C67.4571 21.8716 67.4376 21.8681 67.4278 21.8664C67.4295 21.8566 67.433 21.8371 67.4513 21.79C67.453 21.7803 67.4548 21.7705 67.4467 21.759L67.437 21.7573L67.4272 21.7556C67.3095 21.7952 67.2601 21.8469 67.224 21.8808C67.1993 21.9066 67.1861 21.9244 67.1551 21.929C67.1637 21.8802 67.182 21.8331 67.2102 21.7878C67.2435 21.7131 67.29 21.6207 67.2928 21.4903C67.2945 21.4806 67.2865 21.4691 67.2767 21.4673C67.267 21.4656 67.2572 21.4639 67.2555 21.4737C67.2423 21.4915 67.2176 21.5173 67.1981 21.5139C67.1785 21.5104 67.1154 21.4691 67.0562 21.1768C67.0499 21.1556 67.0499 21.1556 67.0516 21.1458C67.0418 21.1441 67.0436 21.1343 67.0338 21.1326C67.024 21.1309 67.024 21.1309 67.0126 21.1389C67.0028 21.1372 67.0028 21.1372 66.9994 21.1567C66.8518 21.4226 66.7783 21.4399 66.7588 21.4364C66.7393 21.433 66.7232 21.41 66.7169 21.3888C66.7186 21.379 66.7089 21.3773 66.6991 21.3756C66.6893 21.3738 66.6779 21.3819 66.6761 21.3916C66.6325 21.5249 66.6463 21.6179 66.6521 21.6994C66.663 21.7517 66.6641 21.8022 66.6555 21.851C66.628 21.8361 66.6216 21.8148 66.6073 21.7821C66.5849 21.7379 66.5562 21.6724 66.4574 21.6047L66.4476 21.603C66.4476 21.603 66.4379 21.6013 66.4264 21.6093C66.4149 21.6173 66.4132 21.6271 66.4115 21.6369C66.4126 21.6874 66.4092 21.7069 66.4075 21.7167C66.3977 21.715 66.3897 21.7035 66.3701 21.7C66.3248 21.6719 66.2404 21.6369 66.1117 21.6243C66.102 21.6225 66.0905 21.6306 66.0888 21.6404C66.0871 21.6501 66.0853 21.6599 66.1031 21.6731C66.1307 21.688 66.2433 21.8488 66.2117 21.9136C66.2065 21.9429 66.1755 21.9475 66.125 21.9487C66.1152 21.947 66.1152 21.947 66.1055 21.9452C66.0957 21.9435 66.0842 21.9516 66.0825 21.9613C66.0808 21.9711 66.0791 21.9808 66.0773 21.9906C66.1204 22.0888 66.2565 22.1732 66.349 22.2197C66.2967 22.2306 66.2215 22.2576 66.1721 22.3093C66.1704 22.319 66.1687 22.3288 66.167 22.3386C66.1652 22.3483 66.175 22.35 66.1848 22.3518C66.2158 22.3472 66.2353 22.3506 66.2565 22.3443C66.2451 22.3523 66.2433 22.3621 66.2336 22.3604C66.1876 22.3925 66.1365 22.454 66.1262 22.5125C66.1245 22.5223 66.1245 22.5223 66.1325 22.5338C66.1325 22.5338 66.1423 22.5355 66.1521 22.5372C66.1521 22.5372 66.1521 22.5372 66.1618 22.5389C66.2451 22.5234 66.3168 22.516 66.3461 22.5211C66.3559 22.5228 66.3559 22.5228 66.3657 22.5246C66.3639 22.5343 66.3507 22.5521 66.3209 22.6073C66.3192 22.617 66.3174 22.6268 66.3157 22.6365C66.3255 22.6383 66.3238 22.648 66.3335 22.6497L66.3433 22.6515C66.4495 22.6199 66.5282 22.5733 66.5838 22.5429C66.651 22.5044 66.6969 22.4723 66.775 22.486C66.7595 22.5739 66.7004 22.795 66.4731 22.8857C66.4616 22.8938 66.4599 22.9035 66.4581 22.9133C66.4564 22.923 66.4645 22.9345 66.4742 22.9362C66.5018 22.9512 66.5196 22.9644 66.5179 22.9741L66.5161 22.9839C66.5144 22.9937 66.5225 23.0051 66.5225 23.0051L66.5322 23.0069L66.542 23.0086C66.5632 23.0023 66.6287 22.9735 66.693 22.8943C66.7705 22.7973 66.8239 22.6658 66.8514 22.5096C66.9295 22.5233 66.9617 22.5693 67.0197 22.6399C67.0616 22.6875 67.1196 22.7582 67.2069 22.8339L67.2166 22.8357C67.2264 22.8374 67.2264 22.8374 67.2379 22.8293C67.2494 22.8213 67.2511 22.8115 67.243 22.8001C67.2241 22.7363 67.2275 22.7168 67.2292 22.707C67.2292 22.707 67.239 22.7088 67.2488 22.7105C67.278 22.7156 67.3429 22.7472 67.4159 22.7903C67.4159 22.7903 67.4159 22.7903 67.4256 22.792C67.4354 22.7937 67.4354 22.7937 67.4451 22.7954C67.4549 22.7972 67.4566 22.7874 67.4583 22.7776C67.4784 22.7208 67.4417 22.6438 67.4095 22.5979C67.4015 22.5864 67.4032 22.5767 67.3952 22.5652C67.4049 22.5669 67.4325 22.5818 67.4503 22.595C67.46 22.5968 67.4698 22.5985 67.4715 22.5887C67.4733 22.579 67.475 22.5692 67.4767 22.5594C67.4497 22.4842 67.3963 22.4446 67.3429 22.405C67.4457 22.3929 67.6024 22.3602 67.6782 22.2729C67.6897 22.2648 67.6914 22.2551 67.6834 22.2436C67.6753 22.2321 67.6753 22.2321 67.6673 22.2206C67.6575 22.2189 67.6478 22.2172 67.6478 22.2172C67.5989 22.2086 67.5731 22.1839 67.5783 22.1546C67.5725 22.0731 67.735 21.9508 67.766 21.9462C67.7419 21.9117 67.7534 21.9037 67.7568 21.8841Z" fill="#F22F1C"/>
</g>
<path d="M56.8435 23.1983L56.4237 23.1243C56.1504 23.0761 56.0448 23.0474 55.9414 22.9487C55.8283 22.8482 55.7772 22.7385 55.521 22.0794C55.3573 21.6379 55.2648 21.4203 55.1282 21.3962C55.0794 21.3876 55.0351 21.41 54.968 21.4484L54.8646 21.5208C54.8204 21.5432 54.8152 21.5725 54.8066 21.6213L54.7705 21.8263C54.7171 22.1289 54.7137 22.3195 54.7631 22.439C54.8252 22.6009 55.0043 22.6123 54.9802 22.749C54.9664 22.8271 54.8797 22.8621 54.7723 22.8432L53.6383 22.6533C53.531 22.6344 53.4597 22.5815 53.4752 22.4937C53.4993 22.357 53.6928 22.4012 53.8002 22.249C53.8777 22.152 53.9132 22.0073 53.9683 21.6949L54.2793 19.8173C54.3103 19.6416 54.3195 19.5325 54.2063 19.432C54.1271 19.3677 54.0312 19.3407 54.0501 19.2333C54.0604 19.1748 54.1196 19.1248 54.2367 19.1455L55.3512 19.3319C55.4684 19.3526 55.5086 19.41 55.4982 19.4685C55.481 19.5662 55.3897 19.5702 55.2933 19.6035C55.1526 19.6592 55.1222 19.7746 55.0877 19.9699L54.9323 20.9087C54.9288 20.9282 54.9352 20.9495 54.9547 20.9529C54.9645 20.9546 54.9857 20.9483 54.9972 20.9403L55.8802 20.2706C56.1345 20.084 56.2774 19.9582 56.2964 19.8508C56.317 19.7337 56.1707 19.7079 56.1896 19.6005C56.2034 19.5224 56.2688 19.4937 56.3762 19.5126L57.4028 19.6836C57.5004 19.7008 57.5504 19.76 57.5401 19.8185C57.5212 19.9259 57.381 19.9213 57.2323 19.9656C57.0607 20.0259 56.8236 20.1149 56.2936 20.4945L55.7046 20.9241C55.6931 20.9321 55.6914 20.9419 55.6914 20.9419C55.6896 20.9517 55.6977 20.9632 55.7075 20.9649C55.7367 20.97 55.7614 20.9442 55.8298 20.9562C56.0445 20.9941 56.168 21.3782 56.369 21.8364C56.6878 22.5972 56.7952 22.7872 56.8888 22.8842C56.9744 22.9698 57.0685 23.0065 57.0513 23.1041C57.018 23.1788 56.9508 23.2172 56.8435 23.1983Z" fill="#24313B"/>
<path d="M58.818 22.2179C58.8214 22.1984 58.8231 22.1886 58.8134 22.1869C58.8036 22.1852 58.7921 22.1932 58.7806 22.2012C58.6399 22.257 58.4149 22.2777 58.2249 22.3851C58.0693 22.4684 57.9998 22.5769 57.9826 22.6745C57.9516 22.8502 58.0579 22.9897 58.2353 23.0109C58.3817 23.0368 58.5436 22.9747 58.6493 22.8323C58.7319 22.706 58.7577 22.5596 58.8094 22.2667L58.818 22.2179ZM59.7587 23.3903C59.7449 23.4684 59.684 23.5281 59.6071 23.5648C59.4842 23.6338 59.3096 23.6533 59.1632 23.6275C58.9582 23.5913 58.7624 23.4461 58.7388 23.1803C58.7423 23.1607 58.744 23.151 58.7342 23.1492C58.7245 23.1475 58.7228 23.1573 58.6998 23.1734C58.4598 23.3927 58.1349 23.4663 57.842 23.4147C57.4516 23.3458 57.107 23.0737 57.1747 22.6327C57.2143 22.4082 57.363 22.1928 57.6328 22.0894C57.8929 21.9843 58.2501 21.9567 58.4935 21.8889C58.6635 21.8384 58.8891 21.7574 58.9287 21.5329C58.958 21.3669 58.8632 21.2194 58.6565 21.193C58.5393 21.1723 58.4348 21.1942 58.3464 21.239C58.0502 21.378 57.9824 21.6478 57.766 21.6197C57.6 21.5905 57.565 21.5038 57.6046 21.2793C57.627 21.1524 57.674 20.9996 57.7578 20.9238C57.9502 20.7464 58.4876 20.7807 58.7414 20.8255C59.249 20.915 59.7951 21.2428 59.6999 21.84C59.6414 22.1718 59.5702 22.4612 59.5151 22.7736C59.46 23.086 59.4359 23.2226 59.6604 23.2622C59.727 23.284 59.7707 23.3219 59.7587 23.3903Z" fill="#24313B"/>
<path d="M61.3688 23.6239C61.7398 23.6893 61.9763 23.3183 62.0606 22.84C62.1438 22.3111 61.983 21.9104 61.6494 21.8616C61.2199 21.7859 61.0219 22.224 60.953 22.6145C60.8578 23.2117 61.0467 23.5671 61.3688 23.6239ZM61.2839 23.9914C61.0106 23.9432 60.7688 23.8301 60.6023 23.69C60.5506 23.6406 60.5116 23.6338 60.4921 23.6303C60.4237 23.6183 60.3795 23.6407 60.3382 23.7038C60.2819 23.7946 60.236 23.8267 60.1677 23.8147C60.0994 23.8026 60.0281 23.7498 60.0557 23.5936L60.4837 21.0522C60.5095 20.9058 60.5169 20.8064 60.5014 20.7232C60.4859 20.6399 60.4342 20.5905 60.3452 20.5245C60.2901 20.4947 60.1977 20.4482 60.2114 20.3701C60.2252 20.292 60.2792 20.2713 60.4015 20.2627C60.6248 20.2517 60.8924 20.2184 61.0899 20.1828C61.1421 20.1718 61.1846 20.1592 61.2334 20.1678C61.292 20.1781 61.3552 20.2195 61.3311 20.3561L61.1223 21.5976C61.1154 21.6366 61.1234 21.6481 61.1527 21.6533C61.1624 21.655 61.1837 21.6487 61.1969 21.6309C61.4122 21.4373 61.7343 21.323 62.0369 21.3764C62.6633 21.4768 62.9654 22.1037 62.8616 22.7497C62.7354 23.5226 62.1154 24.1279 61.2839 23.9914Z" fill="#24313B"/>
<path d="M64.5045 22.1638C64.1726 22.1053 63.9372 22.3557 63.8592 22.8552C63.7989 23.1969 63.7847 24.0197 64.2727 24.1058C64.6144 24.166 64.8457 23.8243 64.9283 23.3558C64.9805 23.0026 65.004 22.2419 64.5045 22.1638ZM65.7351 23.3471C65.6158 24.0809 64.9314 24.5943 64.1585 24.4681C63.3759 24.3402 62.909 23.7345 63.0421 22.9225C63.1615 22.1887 63.8555 21.677 64.6479 21.8067C65.4288 21.9443 65.8596 22.5839 65.7351 23.3471Z" fill="#24313B"/>
<mask id="mask1" mask-type="alpha" maskUnits="userSpaceOnUse" x="29" y="29" width="3" height="3">
<path d="M29.1446 29.9361L30.8396 29.6171L31.1879 31.4781L29.4928 31.7972L29.1446 29.9361Z" fill="white"/>
</mask>
<g mask="url(#mask1)">
<path d="M30.9595 30.2302C30.9578 30.2205 30.9463 30.2124 30.9365 30.2141C30.8177 30.225 30.7367 30.2796 30.6816 30.3094C30.6735 30.3209 30.654 30.3243 30.6442 30.3261C30.6425 30.3163 30.6391 30.2968 30.6402 30.2463C30.6385 30.2365 30.6368 30.2267 30.6253 30.2187L30.6156 30.2204L30.6058 30.2221C30.5088 30.2996 30.48 30.3651 30.4576 30.4093C30.4433 30.442 30.437 30.4633 30.4094 30.4782C30.4008 30.4294 30.4019 30.3789 30.4129 30.3266C30.4186 30.2451 30.4307 30.1423 30.3888 30.0188C30.3871 30.0091 30.3756 30.001 30.3658 30.0028C30.3561 30.0045 30.3463 30.0062 30.348 30.016C30.3417 30.0372 30.3273 30.0699 30.3078 30.0734C30.2883 30.0768 30.2148 30.0596 30.0592 29.8052C30.046 29.7874 30.046 29.7874 30.0443 29.7776C30.0345 29.7793 30.0328 29.7696 30.0231 29.7713C30.0133 29.773 30.0133 29.773 30.0053 29.7845C29.9955 29.7862 29.9955 29.7862 29.9989 29.8057C29.9512 30.106 29.8881 30.1474 29.8686 30.1508C29.849 30.1543 29.8261 30.1382 29.8129 30.1204C29.8111 30.1106 29.8014 30.1123 29.7916 30.1141C29.7819 30.1158 29.7738 30.1273 29.7755 30.137C29.7801 30.2771 29.8249 30.3598 29.8582 30.4345C29.8863 30.4798 29.9047 30.5269 29.9133 30.5757C29.8823 30.5711 29.8691 30.5533 29.8444 30.5275C29.8082 30.4936 29.7589 30.4419 29.6429 30.412L29.6331 30.4138C29.6331 30.4138 29.6233 30.4155 29.6153 30.427C29.6073 30.4385 29.609 30.4482 29.6107 30.458C29.6291 30.5051 29.6325 30.5246 29.6342 30.5344C29.6245 30.5361 29.613 30.528 29.5935 30.5315C29.5412 30.5206 29.4499 30.5165 29.3248 30.5487C29.315 30.5504 29.307 30.5619 29.3087 30.5716C29.3104 30.5814 29.3121 30.5911 29.3334 30.5975C29.3644 30.6021 29.5251 30.7146 29.5177 30.7864C29.5228 30.8157 29.4953 30.8306 29.4482 30.849C29.4384 30.8507 29.4384 30.8507 29.4286 30.8524C29.4189 30.8541 29.4108 30.8656 29.4126 30.8754C29.4143 30.8852 29.416 30.8949 29.4177 30.9047C29.4918 30.9822 29.6485 31.015 29.7513 31.027C29.7059 31.0552 29.6445 31.1062 29.6158 31.1717C29.6175 31.1815 29.6192 31.1912 29.6209 31.201C29.6227 31.2107 29.6324 31.209 29.6422 31.2073C29.6698 31.1924 29.6893 31.1889 29.7071 31.1757C29.699 31.1872 29.7008 31.197 29.691 31.1987C29.6588 31.2446 29.6318 31.3198 29.6422 31.3784C29.6439 31.3882 29.6439 31.3882 29.6554 31.3962C29.6554 31.3962 29.6651 31.3945 29.6749 31.3928C29.6749 31.3928 29.6749 31.3928 29.6847 31.3911C29.7576 31.348 29.8225 31.3164 29.8518 31.3113C29.8615 31.3095 29.8615 31.3095 29.8713 31.3078C29.873 31.3176 29.8667 31.3388 29.8575 31.4008C29.8592 31.4106 29.8609 31.4204 29.8626 31.4301C29.8724 31.4284 29.8741 31.4382 29.8839 31.4364L29.8937 31.4347C29.9827 31.3687 30.0407 31.2981 30.0826 31.2504C30.1325 31.1913 30.1647 31.1454 30.2428 31.1316C30.2583 31.2195 30.2783 31.4474 30.0957 31.6105C30.0877 31.6219 30.0894 31.6317 30.0911 31.6415C30.0929 31.6512 30.1043 31.6593 30.1141 31.6575C30.1451 31.6621 30.1664 31.6685 30.1681 31.6782L30.1698 31.688C30.1715 31.6977 30.183 31.7058 30.183 31.7058L30.1928 31.7041L30.2025 31.7023C30.2203 31.6891 30.272 31.6398 30.3053 31.5433C30.345 31.4256 30.3501 31.2838 30.3226 31.1276C30.4007 31.1138 30.4466 31.146 30.5253 31.1925C30.581 31.2229 30.6596 31.2695 30.7676 31.3108L30.7773 31.3091C30.7871 31.3074 30.7871 31.3074 30.7951 31.2959C30.8032 31.2844 30.8014 31.2747 30.79 31.2666C30.7504 31.2132 30.7469 31.1937 30.7452 31.1839C30.7452 31.1839 30.755 31.1822 30.7647 31.1805C30.794 31.1753 30.8658 31.1828 30.949 31.1983C30.949 31.1983 30.949 31.1983 30.9588 31.1966C30.9685 31.1949 30.9685 31.1949 30.9783 31.1931C30.9881 31.1914 30.9863 31.1817 30.9846 31.1719C30.9841 31.1116 30.9232 31.0519 30.8773 31.0197C30.8658 31.0117 30.8641 31.0019 30.8526 30.9939C30.8624 30.9922 30.8934 30.9968 30.9146 31.0031C30.9244 31.0014 30.9341 30.9996 30.9324 30.9899C30.9307 30.9801 30.929 30.9703 30.9272 30.9606C30.8761 30.8991 30.8124 30.8802 30.7487 30.8612C30.8411 30.8147 30.9772 30.7303 31.0186 30.6224C31.0266 30.6109 31.0249 30.6012 31.0134 30.5931C31.0019 30.5851 31.0019 30.5851 30.9904 30.577C30.9807 30.5788 30.9709 30.5805 30.9709 30.5805C30.9221 30.5891 30.8894 30.5747 30.8842 30.5454C30.8509 30.4708 30.9618 30.3003 30.9893 30.2853C30.9549 30.2612 30.9629 30.2497 30.9595 30.2302Z" fill="#F22F1C"/>
</g>
<path d="M21.1552 35.1978L20.7355 35.2718C20.4622 35.32 20.3531 35.3292 20.2222 35.2717C20.0815 35.216 19.996 35.1304 19.5298 34.5987C19.225 34.2398 19.0637 34.0669 18.927 34.091C18.8782 34.0996 18.8443 34.1358 18.7943 34.1949L18.722 34.2982C18.6881 34.3344 18.6933 34.3637 18.7019 34.4125L18.738 34.6175C18.7914 34.9201 18.8534 35.1004 18.9406 35.1957C19.0543 35.3267 19.2265 35.2762 19.2506 35.4128C19.2644 35.4909 19.1949 35.5535 19.0875 35.5724L17.957 35.7819C17.8496 35.8008 17.7646 35.7755 17.7491 35.6877C17.725 35.551 17.922 35.5263 17.9708 35.3466C18.0104 35.2289 17.9944 35.0808 17.9393 34.7684L17.5893 32.8976C17.5583 32.7219 17.5296 32.6163 17.389 32.5606C17.2925 32.5272 17.1932 32.5347 17.1742 32.4273C17.1639 32.3687 17.2024 32.3016 17.3195 32.2809L18.4306 32.0749C18.5477 32.0543 18.6051 32.0945 18.6155 32.1531C18.6327 32.2507 18.5483 32.2857 18.469 32.35C18.3559 32.4504 18.3668 32.5693 18.4012 32.7645L18.5762 33.6999C18.5797 33.7194 18.5929 33.7372 18.6124 33.7338C18.6222 33.7321 18.6399 33.7189 18.648 33.7074L19.2487 32.7761C19.4239 32.5138 19.5152 32.3467 19.4962 32.2393C19.4756 32.1222 19.3292 32.148 19.3103 32.0406C19.2965 31.9625 19.3482 31.9131 19.4555 31.8942L20.4787 31.7037C20.5764 31.6865 20.6436 31.725 20.6539 31.7836C20.6728 31.8909 20.5396 31.9346 20.415 32.027C20.2743 32.1424 20.0819 32.3071 19.7138 32.8451L19.3072 33.4502C19.2992 33.4617 19.3009 33.4715 19.3009 33.4715C19.3026 33.4813 19.3141 33.4893 19.3239 33.4876C19.3531 33.4824 19.3675 33.4497 19.4358 33.4376C19.6506 33.3998 19.898 33.7185 20.2436 34.0803C20.8034 34.6861 20.9693 34.828 21.0904 34.8871C21.2001 34.9382 21.3011 34.9406 21.3183 35.0382C21.3126 35.1197 21.2626 35.1789 21.1552 35.1978Z" fill="#24313B"/>
<path d="M22.6741 33.6014C22.6707 33.5819 22.6689 33.5721 22.6592 33.5739C22.6494 33.5756 22.6414 33.5871 22.6333 33.5985C22.5202 33.699 22.3158 33.7954 22.174 33.9614C22.0562 34.0928 22.0281 34.2186 22.0453 34.3162C22.0763 34.4919 22.2238 34.5867 22.3978 34.5459C22.5442 34.5201 22.6752 34.4064 22.7257 34.2365C22.7602 34.0895 22.7344 33.9431 22.6827 33.6502L22.6741 33.6014ZM23.9591 34.3813C23.9728 34.4594 23.936 34.5364 23.8763 34.5972C23.7844 34.704 23.6271 34.7821 23.4807 34.8079C23.2757 34.8441 23.042 34.7745 22.9289 34.5328C22.9255 34.5133 22.9237 34.5035 22.914 34.5052C22.9042 34.507 22.906 34.5167 22.8899 34.5397C22.7394 34.8279 22.4592 35.0082 22.1663 35.0598C21.7759 35.1286 21.359 34.9908 21.2718 34.5532C21.2322 34.3287 21.2983 34.0755 21.5165 33.8861C21.725 33.6983 22.0511 33.5502 22.2567 33.4033C22.3991 33.2976 22.5834 33.1443 22.5439 32.9198C22.5146 32.7539 22.3751 32.6476 22.1718 32.6935C22.0547 32.7142 21.9639 32.7705 21.8962 32.8428C21.6653 33.0747 21.694 33.3515 21.481 33.3991C21.315 33.4284 21.2525 33.3589 21.2129 33.1344C21.1905 33.0075 21.1825 32.8479 21.2353 32.748C21.3553 32.5154 21.8721 32.3639 22.1259 32.3192C22.6335 32.2297 23.2588 32.3509 23.3736 32.9446C23.4321 33.2765 23.4642 33.5728 23.5193 33.8852C23.5743 34.1976 23.5984 34.3342 23.8229 34.2946C23.893 34.2924 23.947 34.313 23.9591 34.3813Z" fill="#24313B"/>
<path d="M25.553 34.0503C25.9239 33.9849 26.0192 33.5555 25.9349 33.0771C25.8322 32.5517 25.544 32.2301 25.2139 32.2984C24.7844 32.3742 24.7482 32.8536 24.817 33.2441C24.9318 33.8378 25.2308 34.1071 25.553 34.0503ZM25.5989 34.4247C25.3256 34.4729 25.0597 34.4493 24.8553 34.3747C24.7898 34.3459 24.7508 34.3528 24.7313 34.3563C24.6629 34.3683 24.629 34.4045 24.6118 34.478C24.59 34.5825 24.5579 34.6284 24.4895 34.6405C24.4212 34.6525 24.3362 34.6272 24.3087 34.471L23.8417 31.9365C23.8158 31.7901 23.7888 31.6942 23.7458 31.6212C23.7027 31.5483 23.6373 31.5196 23.531 31.488C23.469 31.4788 23.3663 31.4667 23.3525 31.3886C23.3387 31.3105 23.3824 31.2727 23.4943 31.2227C23.7005 31.136 23.9405 31.0132 24.1139 30.9122C24.1593 30.884 24.1949 30.8576 24.2437 30.849C24.3023 30.8387 24.3758 30.8559 24.3999 30.9926L24.6282 32.2306C24.6351 32.2696 24.6466 32.2777 24.6759 32.2725C24.6856 32.2708 24.7035 32.2576 24.7098 32.2363C24.8459 31.9808 25.1094 31.7633 25.412 31.7099C26.035 31.59 26.5334 32.0758 26.6567 32.7184C26.8025 33.4878 26.4269 34.2687 25.5989 34.4247Z" fill="#24313B"/>
<path d="M27.9995 31.6056C27.6677 31.6642 27.5321 31.9799 27.6296 32.4761C27.6899 32.8177 27.9579 33.5958 28.446 33.5097C28.7876 33.4495 28.8881 33.0493 28.8055 32.5807C28.7338 32.231 28.4956 31.5081 27.9995 31.6056ZM29.5606 32.2966C29.6995 33.027 29.232 33.7435 28.4626 33.8893C27.6834 34.0367 27.0375 33.6272 26.8849 32.8187C26.746 32.0884 27.2232 31.3701 28.0122 31.2209C28.7931 31.0832 29.4166 31.5369 29.5606 32.2966Z" fill="#24313B"/>
</svg>
